<svg width="20" height="20" viewBox="0 0 20 20" fill="none" xmlns="http://www.w3.org/2000/svg">
<path opacity="0.4" fill-rule="evenodd" clip-rule="evenodd" d="M7.9065 13.7238C7.63535 13.8671 7.62053 13.9202 7.5964 14.8353C7.57262 15.7381 7.54724 15.8514 7.31387 16.0973C7.15597 16.2638 6.84315 16.4133 6.65184 16.4138C6.34509 16.4146 6.06821 16.6284 6.01644 16.9044C5.97858 17.1062 6.09083 17.3682 6.26615 17.4874C6.52447 17.6629 7.1233 17.5967 7.618 17.3379C7.90603 17.1872 8.32139 16.7809 8.48841 16.4864C8.70981 16.0961 8.7681 15.7655 8.7681 14.8998C8.7681 14.2109 8.76046 14.1229 8.68779 13.9727C8.62946 13.8523 8.56202 13.7848 8.44155 13.7265C8.23761 13.6278 8.08962 13.627 7.9065 13.7238ZM9.72732 13.7345C9.42981 13.9051 9.43087 13.8985 9.43094 15.6144C9.43098 17.3106 9.4318 17.3163 9.69979 17.4953C9.97741 17.6808 10.381 17.5721 10.5322 17.2711C10.5936 17.1489 10.6003 16.9847 10.6004 15.6144C10.6005 14.208 10.595 14.0831 10.5282 13.9574C10.4403 13.7924 10.2007 13.6475 10.0157 13.6475C9.94061 13.6475 9.81087 13.6866 9.72732 13.7345ZM11.5869 13.7273C11.4699 13.7851 11.4003 13.8555 11.3432 13.9735C11.2709 14.1227 11.2632 14.212 11.2632 14.8998C11.2632 15.7655 11.3215 16.0961 11.5429 16.4864C11.7099 16.7809 12.1253 17.1872 12.4133 17.3379C12.908 17.5967 13.5069 17.6629 13.7652 17.4874C13.9405 17.3682 14.0527 17.1062 14.0149 16.9044C13.9631 16.6284 13.6862 16.4146 13.3795 16.4138C13.1882 16.4133 12.8753 16.2638 12.7175 16.0973C12.4841 15.8514 12.4587 15.7381 12.4349 14.8353C12.4107 13.9154 12.3961 13.8645 12.1165 13.7219C11.9264 13.6249 11.7909 13.6263 11.5869 13.7273Z" fill="#191217"/>
<path fill-rule="evenodd" clip-rule="evenodd" d="M1.95211 2.43581C1.83792 2.46346 1.59426 2.56049 1.41063 2.65149C0.828059 2.94018 0.387006 3.45698 0.145992 4.13332L0.0556999 4.38673L0.0438481 7.56919C0.0304757 11.1507 0.0252516 11.0712 0.313088 11.6577C0.615661 12.2742 1.22599 12.776 1.9063 12.9677C2.03332 13.0035 2.36307 13.037 2.71527 13.0499L3.30981 13.0716L3.3104 12.2185C3.31106 11.2467 3.34549 11.0306 3.57375 10.5661C3.78412 10.138 4.23176 9.69597 4.67434 9.47932C5.264 9.19067 5.02751 9.20291 10.0155 9.20291C15.0034 9.20291 14.7669 9.19067 15.3566 9.47932C15.7992 9.69597 16.2468 10.138 16.4572 10.5661C16.6854 11.0306 16.7199 11.2467 16.7205 12.2185L16.7211 13.0716L17.3157 13.0499C17.6679 13.037 17.9976 13.0035 18.1246 12.9677C18.8049 12.776 19.4153 12.2742 19.7178 11.6577C20.0057 11.0712 20.0005 11.1507 19.9871 7.56919L19.9752 4.38673L19.8849 4.13332C19.6369 3.43718 19.1977 2.9316 18.586 2.63811C18.3858 2.54205 18.1291 2.44447 18.0155 2.42119C17.691 2.3548 2.22876 2.36887 1.95211 2.43581ZM14.2501 4.70104C14.5285 4.90919 14.6062 5.2095 14.4512 5.47835C14.3013 5.73831 14.1804 5.77535 13.5242 5.7624C13.0299 5.75266 12.946 5.74147 12.8555 5.67328C12.5786 5.46466 12.5335 5.09266 12.7515 4.8155C12.8973 4.63012 13.0227 4.60022 13.6093 4.61094C14.0782 4.61948 14.1556 4.63036 14.2501 4.70104ZM17.0322 4.66946C17.1069 4.70693 17.2093 4.79901 17.2599 4.87406C17.3853 5.06014 17.3678 5.40712 17.2255 5.55948C17.049 5.74841 16.9594 5.77075 16.378 5.77075C15.8794 5.77075 15.8254 5.76365 15.7035 5.68225C15.3296 5.43246 15.3625 4.87811 15.763 4.67987C15.9824 4.57125 16.823 4.56435 17.0322 4.66946ZM5.53636 10.4133C5.15531 10.4881 4.75016 10.8103 4.58876 11.1668C4.50533 11.3511 4.498 11.426 4.48642 12.2132L4.47395 13.0612H10.0155H15.557L15.5445 12.2132C15.5329 11.426 15.5256 11.3511 15.4422 11.1668C15.3394 10.9397 15.0591 10.6489 14.8293 10.531C14.7431 10.4867 14.5784 10.4326 14.4634 10.4108C14.2047 10.3617 5.78689 10.3641 5.53636 10.4133Z" fill="#191217"/>
</svg>
