<svg width="20" height="20" viewBox="0 0 20 20" fill="none" xmlns="http://www.w3.org/2000/svg">
<path opacity="0.4" fill-rule="evenodd" clip-rule="evenodd" d="M8.43969 3.84037C8.11143 3.9186 7.8657 4.05219 7.61817 4.28704C7.36324 4.52894 7.20913 4.79531 7.13813 5.11682C7.11182 5.23586 7.09467 5.74557 7.09467 6.40708V7.50059H13.5274H19.9602V6.40708C19.9602 5.73232 19.9432 5.23823 19.916 5.11682C19.7722 4.47729 19.2323 3.96275 18.5645 3.82901C18.2519 3.76637 8.70515 3.7771 8.43969 3.84037ZM14.9709 5.16189C15.1439 5.24596 15.2818 5.45986 15.2818 5.6441C15.2818 5.92788 14.9936 6.20105 14.6941 6.20105C14.5128 6.20105 14.2719 6.05665 14.1862 5.89651C14.0422 5.62772 14.1326 5.33429 14.4082 5.17533C14.5949 5.06773 14.7685 5.06357 14.9709 5.16189ZM17.3101 5.16189C17.4831 5.24596 17.621 5.45986 17.621 5.6441C17.621 5.92788 17.3328 6.20105 17.0333 6.20105C16.852 6.20105 16.6111 6.05665 16.5253 5.89651C16.3814 5.62772 16.4717 5.33429 16.7474 5.17533C16.9341 5.06773 17.1077 5.06357 17.3101 5.16189Z" fill="#191217"/>
<path fill-rule="evenodd" clip-rule="evenodd" d="M1.34503 0.0531875C1.01676 0.13142 0.771032 0.265013 0.523508 0.49986C0.268576 0.741761 0.114464 1.00813 0.0434694 1.32964C0.0139177 1.46345 0 2.35167 0 4.1051V6.6838H2.96296H5.92593V5.93964C5.92593 5.11685 5.97314 4.79623 6.1554 4.38104C6.43754 3.73836 7.03037 3.17295 7.71068 2.89771C8.22682 2.68889 8.40351 2.67378 10.3297 2.67378H12.0858V2.10008C12.0858 1.78455 12.0659 1.43787 12.0416 1.32964C11.8979 0.690113 11.3579 0.175568 10.6901 0.0418258C10.3781 -0.0207009 1.61025 -0.0100075 1.34503 0.0531875ZM3.19789 3.04556C3.29696 3.09368 3.37977 3.17254 3.43029 3.26689C3.50222 3.40122 3.50877 3.48477 3.50877 4.27036C3.50877 5.05595 3.50222 5.1395 3.43029 5.27383C3.34156 5.43947 3.11719 5.56991 2.92109 5.56991C2.73977 5.56991 2.49891 5.42551 2.41314 5.26537C2.34663 5.1412 2.33934 5.04021 2.34082 4.26256C2.34265 3.28259 2.35832 3.21862 2.63521 3.059C2.82187 2.9514 2.99552 2.94724 3.19789 3.04556ZM0 12.6413C0 16.1118 0.0125549 17.5407 0.0442118 17.6817C0.187565 18.3196 0.725885 18.8323 1.39567 18.9688C1.53727 18.9977 2.37419 19.0109 4.05602 19.0109H6.50975L6.37423 18.8092C6.2354 18.6025 6.12027 18.3552 6.01002 18.027C5.95442 17.8613 5.94639 17.2996 5.93587 12.8195L5.92402 7.7977H2.96203H0V12.6413ZM7.09552 13.0498C7.09552 16.2157 7.10819 17.5412 7.13973 17.6817C7.28308 18.3196 7.8214 18.8323 8.49119 18.9688C8.78105 19.0279 18.271 19.0285 18.5653 18.9695C19.2269 18.8368 19.7795 18.3107 19.9177 17.6817C19.948 17.5439 19.961 16.1557 19.961 13.0498V8.61455H13.5283H7.09552V13.0498ZM3.19789 8.98634C3.29696 9.03446 3.37977 9.11332 3.43029 9.20767C3.50534 9.3478 3.50877 9.42391 3.50877 10.9537C3.50877 12.4836 3.50534 12.5597 3.43029 12.6998C3.34156 12.8654 3.11719 12.9959 2.92109 12.9959C2.73977 12.9959 2.49891 12.8515 2.41314 12.6913C2.34382 12.5619 2.3393 12.4526 2.34082 10.9459C2.34265 9.13686 2.33743 9.17146 2.63521 8.99978C2.82187 8.89217 2.99552 8.88802 3.19789 8.98634ZM14.4444 9.83739C15.7435 10.1601 16.7616 11.1354 17.1211 12.4018C17.1953 12.6629 17.2108 12.8104 17.2108 13.2558C17.2108 13.7012 17.1953 13.8487 17.1211 14.1098C16.7619 15.3753 15.7578 16.3383 14.4444 16.6772C13.9829 16.7963 13.0963 16.7961 12.6316 16.6768C11.2995 16.3348 10.2981 15.3859 9.9338 14.1203C9.81392 13.7038 9.81392 12.8078 9.9338 12.3913C10.3366 10.9916 11.5203 9.98635 13.0409 9.75258C13.3112 9.71104 14.1366 9.7609 14.4444 9.83739ZM12.9825 10.9001C12.2826 11.0432 11.591 11.5605 11.2723 12.179C11.0893 12.5343 10.9955 12.899 10.9955 13.2558C10.9955 14.1435 11.5641 15.0148 12.3977 15.4043C13.1484 15.7551 13.9081 15.7551 14.6589 15.4043C15.317 15.0968 15.8541 14.4389 16.0039 13.757C16.1232 13.2141 16.0513 12.6974 15.7842 12.179C15.5561 11.7362 15.1239 11.3246 14.6589 11.1073C14.1166 10.8539 13.5505 10.7839 12.9825 10.9001Z" fill="#191217"/>
</svg>
