<svg width="20" height="20" viewBox="0 0 20 20" fill="none" xmlns="http://www.w3.org/2000/svg">
<path opacity="0.4" fill-rule="evenodd" clip-rule="evenodd" d="M2.71105 0.0687208C2.51578 0.167705 2.39789 0.362705 2.39789 0.586807C2.39789 0.810908 2.51578 1.00591 2.71105 1.10489C2.83623 1.16837 2.998 1.17298 4.76717 1.16349C6.63739 1.15349 6.69018 1.1511 6.79518 1.07267C6.98873 0.928057 7.05949 0.798018 7.05949 0.586807C7.05949 0.375596 6.98873 0.245557 6.79518 0.100947C6.69018 0.0225099 6.63739 0.0201271 4.76717 0.0101271C2.998 0.000634887 2.83623 0.00524426 2.71105 0.0687208ZM17.9783 0.0670802C17.9036 0.105869 17.8025 0.197315 17.7538 0.270322C17.6766 0.385869 17.6651 0.452822 17.6651 0.787901V1.17274L17.304 1.17282C16.8852 1.17286 16.7214 1.23399 16.5824 1.4422C16.3966 1.72036 16.5055 2.1247 16.8069 2.27618C16.9069 2.32649 17.0381 2.3445 17.304 2.34454L17.6651 2.34462V2.72946C17.6651 3.06454 17.6766 3.13149 17.7538 3.24704C17.9914 3.60294 18.4629 3.59466 18.7352 3.22981C18.7989 3.14439 18.8174 3.04849 18.8298 2.73771L18.8453 2.35165L19.2287 2.33837C19.5415 2.32755 19.6318 2.31028 19.7197 2.24454C19.9132 2.09985 19.9839 1.96985 19.9839 1.75868C19.9839 1.54751 19.9132 1.41751 19.7197 1.27282C19.6318 1.20708 19.5415 1.18981 19.2287 1.17899L18.8453 1.16571L18.8298 0.779658C18.8133 0.367158 18.7733 0.269111 18.5555 0.106416C18.4111 -0.00147449 18.1454 -0.0195604 17.9783 0.0670802ZM0.329201 2.41247C0.133928 2.51146 0.0160522 2.70646 0.0160522 2.93056C0.0160522 3.15466 0.133928 3.34966 0.329201 3.44864C0.454423 3.51212 0.617091 3.51673 2.40484 3.50724C4.29478 3.49724 4.34734 3.49489 4.45237 3.41642C4.64593 3.27181 4.71668 3.14177 4.71668 2.93056C4.71668 2.71935 4.64593 2.58931 4.45237 2.4447C4.34734 2.36622 4.29478 2.36388 2.40484 2.35388C0.617091 2.34438 0.454423 2.34899 0.329201 2.41247ZM14.4251 16.5515C14.3503 16.5902 14.2493 16.6817 14.2005 16.7547C14.1234 16.8702 14.1119 16.9372 14.1119 17.2723V17.6571L13.7507 17.6572C13.3319 17.6572 13.1681 17.7184 13.0291 17.9266C12.8434 18.2047 12.9522 18.6091 13.2537 18.7606C13.3537 18.8109 13.4848 18.8289 13.7507 18.8289L14.1119 18.829V19.2138C14.1119 19.5489 14.1234 19.6159 14.2005 19.7314C14.4382 20.0873 14.9097 20.079 15.1819 19.7142C15.2457 19.6288 15.2641 19.5329 15.2766 19.2221L15.2921 18.836L15.6754 18.8227C15.9882 18.8119 16.0786 18.7947 16.1665 18.7289C16.36 18.5842 16.4307 18.4542 16.4307 18.2431C16.4307 18.0319 16.36 17.9019 16.1665 17.7572C16.0786 17.6915 15.9882 17.6742 15.6754 17.6634L15.2921 17.6501L15.2766 17.264C15.26 16.8515 15.2201 16.7535 15.0022 16.5908C14.8578 16.4829 14.5921 16.4648 14.4251 16.5515Z" fill="#191217"/>
<path fill-rule="evenodd" clip-rule="evenodd" d="M10.2655 0.926866C9.75903 0.99542 9.05568 1.26905 8.59637 1.57632C8.11598 1.89765 6.05924 3.97753 5.85362 4.34983C5.6127 4.7862 5.51548 5.14608 5.49314 5.68448L5.47366 6.15323L7.10819 4.52995C8.83968 2.81042 8.90765 2.75382 9.42338 2.60226C9.69877 2.52136 10.2466 2.52136 10.522 2.60226C11.0766 2.76523 11.554 3.16519 11.8015 3.67401L11.9449 3.96886L12.2181 3.87425C12.6061 3.73983 13.1231 3.74065 13.5104 3.87632C14.6863 4.28808 15.2158 5.5121 14.7237 6.68058C14.7053 6.72429 14.7757 6.77546 15.0008 6.88198C15.9889 7.34956 16.4115 8.52495 15.9691 9.57561C15.9483 9.62499 16.0077 9.66956 16.2436 9.78163C16.6089 9.95518 17.0041 10.3364 17.1667 10.6721C17.4735 11.3055 17.467 11.9837 17.1481 12.5954C17.049 12.7856 16.781 13.0783 15.8023 14.0653C15.1301 14.743 14.5802 15.3122 14.5802 15.3301C14.5802 15.348 14.813 15.3541 15.0976 15.3437C15.5237 15.3282 15.67 15.3062 15.9273 15.2192C16.5242 15.0173 16.6928 14.8871 17.8729 13.7159C19.0398 12.5579 19.2496 12.3129 19.5157 11.7978C20.0813 10.7028 20.1201 9.32679 19.6167 8.21612C19.309 7.53733 19.3061 7.53409 16.3607 4.57827C13.3378 1.5448 13.2942 1.50608 12.5674 1.20909C12.0216 0.986045 11.5397 0.898037 10.9037 0.905186C10.6171 0.908389 10.33 0.918155 10.2655 0.926866ZM9.59715 3.78183C9.53022 3.81851 8.12453 5.18925 6.4734 6.82788C3.60831 9.67136 3.47017 9.80229 3.44444 9.69897C3.4296 9.63944 3.37283 8.78214 3.31832 7.79386L3.21922 5.99698L3.09149 5.74456C2.7234 5.01687 1.74602 4.87757 1.20581 5.47577C0.968799 5.73823 0.92237 5.89269 0.854546 6.64483C0.741037 7.90323 0.665559 8.52663 0.346743 10.8407C0.044326 13.0357 0.0379267 13.1044 0.0365601 14.1806C0.0355058 15.0101 0.0476484 15.2354 0.10903 15.5282C0.330346 16.5839 0.804762 17.4278 1.65329 18.2752C2.47768 19.0985 3.48188 19.6369 4.66234 19.8887C5.19927 20.0032 6.28446 20.0148 6.83818 19.9119C7.62072 19.7666 8.41207 19.4458 9.09125 18.9987C9.44755 18.764 9.7944 18.4304 12.7739 15.4553C14.6884 13.5439 16.0911 12.1134 16.1298 12.0332C16.1664 11.9574 16.2032 11.7899 16.2117 11.661C16.2425 11.1894 15.8966 10.7908 15.4224 10.7514C15.0259 10.7185 15.0231 10.7206 13.6236 12.1117C12.2388 13.4882 12.2432 13.4848 11.9095 13.4222C11.5387 13.3526 11.3503 12.936 11.5319 12.5872C11.5734 12.5075 12.3308 11.7216 13.2149 10.8407C14.2832 9.77636 14.8471 9.18675 14.8957 9.08292C15.0453 8.76382 14.9631 8.31468 14.712 8.07913C14.4772 7.85878 14.0711 7.78718 13.7687 7.91272C13.6699 7.95374 13.087 8.50827 11.9445 9.648C10.4765 11.1125 10.2472 11.3264 10.1191 11.3499C9.6579 11.4346 9.32069 11.0973 9.40507 10.6357C9.42861 10.5069 9.68359 10.2365 11.5139 8.39933C12.6591 7.24991 13.6216 6.25675 13.653 6.19229C13.7433 6.00675 13.7621 5.83433 13.7162 5.61476C13.6811 5.44726 13.6371 5.37538 13.4684 5.21034C13.1673 4.91565 12.8311 4.85921 12.4717 5.04296C12.3965 5.0814 11.4301 6.02046 10.3241 7.12979C9.21811 8.23913 8.24801 9.18073 8.16835 9.22226C7.8197 9.40397 7.40327 9.21554 7.33372 8.8446C7.26973 8.50339 7.23275 8.54917 9.0369 6.73917C10.1762 5.59624 10.7305 5.01308 10.7715 4.91425C10.9519 4.47937 10.7406 3.95007 10.3156 3.77249C10.1227 3.6919 9.75243 3.69671 9.59715 3.78183Z" fill="#191217"/>
</svg>
