<svg width="20" height="20" viewBox="0 0 20 20" fill="none" xmlns="http://www.w3.org/2000/svg">
<path fill-rule="evenodd" clip-rule="evenodd" d="M6.26115 0.047939C6.11652 0.114892 5.98684 0.252705 5.93187 0.397861C5.90492 0.468994 5.8902 1.05138 5.8902 2.04634V3.58485L4.91681 3.59653C3.84584 3.60938 3.84755 3.60899 3.64744 3.87716C3.56974 3.9813 3.56693 4.03235 3.56693 5.34649C3.56693 6.66063 3.56974 6.71169 3.64744 6.81583C3.81776 7.04407 3.91338 7.08372 4.32775 7.09809L4.71216 7.11141L4.72931 8.9145C4.7452 10.5833 4.75278 10.7459 4.83103 11.0982C5.0646 12.15 5.52406 12.9896 6.27989 13.7457C6.89402 14.3601 7.54703 14.768 8.3371 15.0308C8.67634 15.1437 9.21237 15.2684 9.35837 15.2684C9.42092 15.2684 9.44049 15.3165 9.48141 15.5711C9.60437 16.336 10.0001 17.2594 10.4749 17.8891C11.3993 19.1153 12.8384 19.8872 14.3754 19.9813C14.7135 20.002 14.8007 19.9949 14.9226 19.937C15.3197 19.7485 15.3724 19.1862 15.0167 18.9328C14.9235 18.8664 14.811 18.842 14.4791 18.8162C12.9441 18.6968 11.6704 17.8575 11.0216 16.5379C10.8506 16.19 10.6149 15.4768 10.6149 15.3074C10.6149 15.2914 10.7703 15.2498 10.9603 15.2151C11.9789 15.0286 12.8772 14.5597 13.6473 13.8122C14.5027 12.9819 15.0296 11.9678 15.2046 10.8152C15.247 10.5361 15.261 10.0311 15.2612 8.77778L15.2614 7.11141L15.6616 7.09809C16 7.08684 16.0807 7.0713 16.184 6.99766C16.4261 6.82485 16.4328 6.78052 16.4328 5.34649C16.4328 3.91247 16.4261 3.86813 16.184 3.69532C16.0666 3.61157 16.0237 3.60774 15.0759 3.59657L14.09 3.58493V2.02044C14.09 0.291298 14.0883 0.277939 13.8412 0.101572C13.7526 0.0384078 13.6635 0.0144625 13.5169 0.0144625C13.2986 0.0144625 13.166 0.0859859 13.0186 0.283369C12.9409 0.387548 12.9377 0.445087 12.9271 1.98993L12.9161 3.58868H9.98886H7.0616V2.02231C7.0616 0.297158 7.05907 0.277197 6.81893 0.106142C6.67473 0.00340777 6.41577 -0.0236235 6.26115 0.047939ZM10.2486 7.1677C10.4912 7.2829 10.6281 7.59391 10.5584 7.87177C10.5433 7.93181 10.3743 8.13989 10.1784 8.33981L9.82549 8.69977L10.6864 9.13313C11.5767 9.58126 11.6861 9.66173 11.731 9.90122C11.7893 10.2118 11.7467 10.2788 11.0312 11.0031C10.6626 11.3762 10.3136 11.7063 10.2556 11.7366C9.92135 11.9115 9.46989 11.6538 9.41678 11.2577C9.38785 11.0418 9.47016 10.899 9.84622 10.5127C10.0186 10.3356 10.1523 10.184 10.1432 10.1757C10.1342 10.1676 9.73736 9.96528 9.26142 9.72626C8.42402 9.30571 8.39345 9.28622 8.31454 9.12317C8.13972 8.76188 8.22055 8.61368 9.02757 7.81559C9.37872 7.46837 9.70819 7.16739 9.75973 7.14677C9.90358 7.08919 10.101 7.09766 10.2486 7.1677Z" fill="#191217"/>
</svg>
