<svg width="69" height="50" viewBox="0 0 69 50" fill="none" xmlns="http://www.w3.org/2000/svg">
<path d="M52.3506 34.98L43.9688 20.9012C44.0337 21.0104 43.0977 19.4918 43.0977 19.4918C42.8074 19.0131 42.3419 18.6695 41.8025 18.5359C41.2631 18.4023 40.6933 18.4894 40.217 18.7783C39.9816 18.9199 39.7763 19.1072 39.613 19.3295C39.4496 19.5518 39.3315 19.8046 39.2653 20.0733C39.1992 20.3421 39.1864 20.6214 39.2277 20.8951C39.269 21.1689 39.3635 21.4317 39.5059 21.6683L40.5878 23.4844L41.8795 25.6528C43.1028 27.7087 43.4682 30.1718 42.8953 32.5001C42.3224 34.8284 40.8581 36.8312 38.8246 38.068C36.7911 39.3048 34.355 39.6742 32.0521 39.095C29.7492 38.5158 27.7682 37.0354 26.5449 34.9794L13.8813 13.7099C12.658 11.6539 12.2926 9.19088 12.8655 6.86256C13.4384 4.53424 14.9027 2.53138 16.9362 1.29459C18.9697 0.0577957 21.4059 -0.31162 23.7088 0.267614C26.0117 0.846848 27.9927 2.32728 29.216 4.38323C29.216 4.38323 31.7142 8.57869 34.4915 13.244L35.0328 14.1532L35.7441 15.2453C36.0371 15.7296 36.5075 16.0773 37.0529 16.2126C37.5983 16.3478 38.1745 16.2597 38.656 15.9674C39.0649 15.7274 39.3784 15.3509 39.5426 14.9026C39.6484 14.6141 39.693 14.3063 39.6735 13.9992C39.6435 13.473 39.0678 12.4154 39.1905 12.675C39.0806 12.4422 38.9311 12.1055 38.7732 11.6833C38.7563 11.5521 38.7269 11.4229 38.6855 11.2973C38.1512 9.19279 38.3839 6.96412 39.3409 5.01867C40.2979 3.07323 41.9154 1.54094 43.8978 0.701878C45.8802 -0.137188 48.0949 -0.227 50.1374 0.448864C52.1799 1.12473 53.9136 2.52114 55.0216 4.38285L67.6851 25.6524C68.2908 26.6704 68.6923 27.799 68.8665 28.9739C69.0408 30.1488 68.9845 31.3468 68.7009 32.4997C68.4172 33.6525 67.9117 34.7376 67.2133 35.693C66.5148 36.6483 65.6371 37.4552 64.6302 38.0676C63.6233 38.68 62.507 39.0859 61.345 39.2621C60.183 39.4383 58.9979 39.3814 57.8577 39.0946C56.7174 38.8078 55.6442 38.2967 54.6993 37.5906C53.7543 36.8844 52.9562 35.997 52.3505 34.979L52.3506 34.98ZM0 30.5638C0 28.8265 0.50956 27.1281 1.46425 25.6836C2.41894 24.239 3.77588 23.1131 5.36347 22.4483C6.95107 21.7834 8.698 21.6094 10.3834 21.9484C12.0688 22.2873 13.6169 23.1239 14.832 24.3524C16.047 25.5809 16.8745 27.1461 17.2098 28.8501C17.545 30.5541 17.373 32.3203 16.7154 33.9254C16.0578 35.5305 14.9442 36.9025 13.5154 37.8677C12.0866 38.8329 10.4068 39.3481 8.68836 39.3481C6.38407 39.3481 4.17415 38.4226 2.54477 36.7752C0.915386 35.1279 0 32.8936 0 30.5638Z" fill="#A45785"/>
<path d="M2.33132 49.2914H1.00786L0.819526 49.8942H0L1.20129 46.1927H2.1328L3.33919 49.8942H2.51457L2.33132 49.2914ZM1.23692 48.5511H2.10226L1.66959 47.1551L1.23692 48.5511Z" fill="#272126"/>
<path d="M6.27422 49.2226C6.27422 49.2226 6.95122 49.2332 6.95122 48.9001C6.95122 48.6886 6.64071 48.5511 6.22332 48.4559C5.66848 48.329 4.85914 48.091 4.85914 47.2767C4.85914 46.4941 5.57686 46.0869 6.22841 46.0869C6.88504 46.0869 7.39407 46.3936 7.72493 46.8642L7.05302 47.3401C6.92068 47.1022 6.5949 46.8642 6.24877 46.8642C6.05025 46.8642 5.7092 46.97 5.7092 47.2344C5.7092 47.4618 6.00953 47.5411 6.3862 47.6416C6.98176 47.8002 7.80129 48.0329 7.80129 48.8736C7.80129 49.6404 7.01739 49.9947 6.26404 49.9947C5.65321 49.9947 5.0322 49.6615 4.71661 49.175L5.41906 48.7414C5.56668 49.0058 5.9688 49.2226 6.27422 49.2226Z" fill="#272126"/>
<path d="M9.58334 46.1927H10.3876V49.8942H9.58334V46.1927Z" fill="#272126"/>
<path d="M13.6246 49.2226C13.6246 49.2226 14.3016 49.2332 14.3016 48.9001C14.3016 48.6886 13.9911 48.5511 13.5737 48.4559C13.0189 48.329 12.2095 48.091 12.2095 47.2767C12.2095 46.4941 12.9273 46.0869 13.5788 46.0869C14.2354 46.0869 14.7445 46.3936 15.0753 46.8642L14.4034 47.3401C14.2711 47.1022 13.9453 46.8642 13.5992 46.8642C13.4007 46.8642 13.0596 46.97 13.0596 47.2344C13.0596 47.4618 13.3599 47.5411 13.7366 47.6416C14.3322 47.8002 15.1517 48.0329 15.1517 48.8736C15.1517 49.6404 14.3678 49.9947 13.6144 49.9947C13.0036 49.9947 12.3826 49.6615 12.067 49.175L12.7695 48.7414C12.9171 49.0058 13.3192 49.2226 13.6246 49.2226Z" fill="#272126"/>
<path d="M18.4836 49.8942H17.6691V46.933H16.5798V46.1927H19.5729V46.933H18.4836V49.8942Z" fill="#272126"/>
<path d="M23.7927 49.1539V49.8942H21.3036V46.1927H23.6654V46.933H22.118V47.6733H23.1157V48.4136H22.118V49.1539H23.7927Z" fill="#272126"/>
<path d="M28.0122 49.1539V49.8942H25.5231V46.1927H27.885V46.933H26.3375V47.6733H27.3352V48.4136H26.3375V49.1539H28.0122Z" fill="#272126"/>
<path d="M33.852 50C32.8238 50 31.9686 49.1327 31.9686 48.0434C31.9686 46.9753 32.8034 46.0869 33.852 46.0869C34.4577 46.0869 35.0024 46.3566 35.3587 46.8642L34.6817 47.3401C34.5188 47.0705 34.2032 46.8642 33.852 46.8642C33.2361 46.8642 32.8187 47.4036 32.8187 48.0434C32.8187 48.6833 33.2361 49.2226 33.852 49.2226C34.2032 49.2226 34.5035 49.0428 34.6868 48.7414L35.3892 49.175C35.038 49.6827 34.4577 50 33.852 50Z" fill="#272126"/>
<path d="M37.0666 48.477V46.1927H37.881V48.4982C37.881 48.9001 38.1406 49.2226 38.5326 49.2226C38.9143 49.2226 39.179 48.9001 39.179 48.4982V46.1927H39.9935V48.477C39.9935 49.3971 39.3419 50 38.5326 50C37.7283 50 37.0666 49.4447 37.0666 48.477Z" fill="#272126"/>
<path d="M43.1807 49.2226C43.1807 49.2226 43.8577 49.2332 43.8577 48.9001C43.8577 48.6886 43.5472 48.5511 43.1298 48.4559C42.575 48.329 41.7657 48.091 41.7657 47.2767C41.7657 46.4941 42.4834 46.0869 43.1349 46.0869C43.7916 46.0869 44.3006 46.3936 44.6315 46.8642L43.9595 47.3401C43.8272 47.1022 43.5014 46.8642 43.1553 46.8642C42.9568 46.8642 42.6157 46.97 42.6157 47.2344C42.6157 47.4618 42.916 47.5411 43.2927 47.6416C43.8883 47.8002 44.7078 48.0329 44.7078 48.8736C44.7078 49.6404 43.9239 49.9947 43.1706 49.9947C42.5597 49.9947 41.9387 49.6615 41.6231 49.175L42.3256 48.7414C42.4732 49.0058 42.8753 49.2226 43.1807 49.2226Z" fill="#272126"/>
<path d="M48.0397 49.8942H47.2252V46.933H46.1359V46.1927H49.129V46.933H48.0397V49.8942Z" fill="#272126"/>
<path d="M50.6064 48.0434C50.6064 46.97 51.4768 46.0869 52.4898 46.0869C53.5231 46.0869 54.3732 46.9964 54.3732 48.0434C54.3732 49.1116 53.4976 50 52.4898 50C51.431 50 50.6064 49.0587 50.6064 48.0434ZM51.4565 48.0434C51.4819 48.6568 51.8789 49.2226 52.4898 49.2226C53.1057 49.2226 53.5231 48.6198 53.5231 48.0434C53.5231 47.43 53.0751 46.8642 52.4898 46.8642C51.8739 46.8642 51.4565 47.4618 51.4565 48.0434Z" fill="#272126"/>
<path d="M57.7703 48.7785L57.0221 47.6786V49.8942H56.2076V46.1927H57.0221L57.9892 47.7526L58.9614 46.1927H59.7759V49.8942H58.9614V47.6786L58.2081 48.7785H57.7703Z" fill="#272126"/>
<path d="M64.3031 49.1539V49.8942H61.814V46.1927H64.1759V46.933H62.6285V47.6733H63.6261V48.4136H62.6285V49.1539H64.3031Z" fill="#272126"/>
<path d="M68.7568 47.4723C68.7568 48.017 68.4259 48.4876 67.9576 48.6727L68.9655 49.8942H67.9678L67.0261 48.752H66.848V49.8942H66.0335V46.1927H67.525C68.202 46.1927 68.7568 46.7585 68.7568 47.4723ZM67.3926 46.933H66.848V48.0117H67.3926C67.6777 48.0117 67.9118 47.7685 67.9118 47.4723C67.9118 47.1762 67.6777 46.933 67.3926 46.933Z" fill="#272126"/>
</svg>
