<svg width="20" height="20" viewBox="0 0 20 20" fill="none" xmlns="http://www.w3.org/2000/svg">
<path fill-rule="evenodd" clip-rule="evenodd" d="M2.69164 0.0666432C2.10692 0.18294 1.59387 0.636936 1.38755 1.22064C1.31422 1.42809 1.3056 1.55994 1.29051 2.70684C1.28006 3.50072 1.28981 4.08325 1.31691 4.28458C1.37316 4.70263 1.53055 5.03623 1.79624 5.30072C2.1808 5.68349 2.58899 5.83425 3.24088 5.83425H3.61659L3.62829 7.15003C3.63959 8.42664 3.6426 8.47117 3.72833 8.64516C4.13484 9.47015 5.23901 9.54832 5.75059 8.78832C5.92419 8.53035 5.95963 8.25651 5.95963 7.1721C5.95963 6.26341 5.96225 6.23171 6.04813 6.10317C6.28073 5.75503 6.76914 5.75503 7.00174 6.10317C7.07768 6.21686 7.09024 6.28637 7.09024 6.59308C7.09024 7.22516 7.17562 7.52263 7.43566 7.79662C8.02541 8.41795 9.04837 8.20076 9.35695 7.38867C9.41757 7.22918 9.42942 7.08629 9.42942 6.51608V5.83425H12.1503C15.1321 5.83425 15.1216 5.83499 15.5286 5.60107C15.7645 5.46555 16.0484 5.17912 16.187 4.93701C16.3301 4.68684 16.4067 4.3158 16.4074 3.86988L16.408 3.48442L16.7749 3.50364C17.1761 3.52462 17.3307 3.58563 17.476 3.78044C17.5528 3.88329 17.5588 3.94645 17.5693 4.7551C17.5801 5.59039 17.5774 5.62575 17.4913 5.79436C17.4422 5.89039 17.3495 5.99892 17.2852 6.03561C17.2208 6.0723 15.687 6.52395 13.8767 7.03927C12.0664 7.55456 10.4932 8.02271 10.3808 8.07959C10.2684 8.13647 10.0862 8.2728 9.97586 8.38255C9.57242 8.78388 9.43097 9.18177 9.43 9.91807L9.42942 10.3567H10.0109H10.5925L10.6055 9.89152C10.6194 9.39319 10.6506 9.30614 10.8743 9.14138C10.9266 9.10286 12.4518 8.64945 14.2637 8.13378C16.0756 7.61814 17.6519 7.15078 17.7666 7.09526C18.2315 6.87023 18.6231 6.32883 18.7068 5.79526C18.7551 5.48774 18.7576 4.23916 18.7107 3.87549C18.6475 3.38536 18.3519 2.91304 17.9358 2.6374C17.6447 2.44458 17.3208 2.36446 16.8327 2.36446H16.408L16.4074 1.98434C16.4071 1.7753 16.3803 1.49171 16.3479 1.35425C16.2167 0.797793 15.7697 0.3114 15.205 0.11062C15.04 0.0519844 14.4854 0.0457076 8.94209 0.0397037C5.59706 0.0360779 2.78435 0.0482027 2.69164 0.0666432Z" fill="#191217"/>
<path opacity="0.4" fill-rule="evenodd" clip-rule="evenodd" d="M7.30014 11.621C7.15207 11.6854 7.08958 11.8429 7.09195 12.1459C7.0957 12.6303 7.10927 12.6551 7.69032 13.2372L8.22112 13.7691L7.88388 15.4253C7.58104 16.9128 7.54665 17.1253 7.54665 17.5105C7.54669 17.8746 7.56268 17.9864 7.6527 18.2512C7.82611 18.7615 8.10061 19.1575 8.48603 19.4535C8.96923 19.8247 9.39102 19.9662 10.0142 19.9662C10.6374 19.9662 11.0592 19.8247 11.5424 19.4535C11.9314 19.1547 12.2204 18.7398 12.38 18.2512C12.4647 17.9917 12.4818 17.8673 12.4817 17.5105C12.4816 17.1256 12.4471 16.9119 12.1447 15.4263L11.8077 13.771L12.3535 13.2206L12.8992 12.6701V12.3112C12.8992 11.9168 12.8447 11.7302 12.6997 11.6286C12.618 11.5714 12.3516 11.5652 10.0153 11.5666C7.92042 11.5678 7.39827 11.5783 7.30014 11.621Z" fill="#191217"/>
</svg>
