<svg width="20" height="20" viewBox="0 0 20 20" fill="none" xmlns="http://www.w3.org/2000/svg">
<path fill-rule="evenodd" clip-rule="evenodd" d="M0.943723 0.0584495C0.695464 0.135598 0.362867 0.444699 0.243306 0.709387C0.154592 0.905754 0.150299 0.954035 0.150299 1.75509C0.150299 2.55614 0.154592 2.60443 0.243306 2.80079C0.370325 3.08196 0.695897 3.37618 0.96735 3.45513C1.14513 3.50685 1.52697 3.51357 3.74658 3.50423L6.31968 3.49337L6.51971 3.38779C6.76891 3.2563 7.0169 2.97919 7.09769 2.74204C7.18644 2.48146 7.18644 1.02872 7.09769 0.768137C7.0169 0.530989 6.76891 0.253879 6.51971 0.122395L6.31968 0.0168089L3.72307 0.00923075C1.54547 0.00286357 1.09698 0.0107933 0.943723 0.0584495ZM17.1481 0.331067C16.8996 0.409426 16.5668 0.719074 16.4477 0.982824L16.3547 1.18868V3.78634V6.384L16.4477 6.58986C16.5051 6.71704 16.6219 6.86997 16.7532 6.99001C17.0714 7.28095 17.2111 7.3104 18.1998 7.29501C18.9931 7.28271 19.014 7.28025 19.2099 7.17685C19.3199 7.1188 19.4812 6.99036 19.5682 6.8915C19.8583 6.56173 19.8494 6.66044 19.8494 3.78634C19.8494 0.912239 19.8583 1.01095 19.5682 0.681184C19.4812 0.582317 19.3199 0.453879 19.2099 0.395832C19.0123 0.291535 18.9997 0.290129 18.1704 0.281848C17.5203 0.275324 17.2896 0.286418 17.1481 0.331067ZM14.0314 0.883801C11.7618 1.12697 9.8632 2.79189 9.32439 5.01154C9.17379 5.63204 9.14568 6.28415 9.15841 8.86446L9.17009 11.2277L12.0888 11.2377L15.0076 11.2478V8.98189V6.71603H15.1241H15.2406L15.212 6.47189C15.1746 6.15372 15.1746 1.41896 15.212 1.10079L15.2406 0.856653L14.7044 0.862903C14.4094 0.86634 14.1066 0.875754 14.0314 0.883801ZM1.70681 9.89935C1.61794 9.93169 1.36317 10.0367 1.14064 10.1326L0.735998 10.307L0.72444 11.6463C0.708352 13.5104 0.783597 14.1885 1.11342 15.1504C1.73247 16.9559 3.06244 18.4604 4.7578 19.2733C5.30098 19.5336 5.54592 19.6236 6.10257 19.7673C8.0733 20.2758 10.149 19.9157 11.8643 18.7676C13.8174 17.4604 15.0076 15.2507 15.0076 12.9317V12.4192H12.0826H9.15767L9.14311 12.8195C9.12616 13.2856 9.04857 13.488 8.78536 13.7528C8.5323 14.0074 8.25796 14.1183 7.88155 14.1183C7.3495 14.1183 6.95239 13.8736 6.72073 13.4031L6.593 13.1437L6.57348 11.7199L6.55396 10.2961L6.05623 10.0863C5.33472 9.78208 5.28122 9.78079 4.70013 10.0538C4.07167 10.3492 3.75114 10.4169 3.35989 10.3371C3.19352 10.3031 2.897 10.1931 2.64781 10.0729C2.17464 9.84454 1.96402 9.80571 1.70681 9.89935Z" fill="#191217"/>
<path opacity="0.4" fill-rule="evenodd" clip-rule="evenodd" d="M0.716583 6.80938C0.716583 8.02555 0.725914 9.02059 0.737354 9.02059C0.748795 9.02059 0.823453 8.99246 0.903303 8.95809C1.29557 8.78918 1.61723 8.70234 1.92703 8.68168C2.21758 8.66234 2.29673 8.67234 2.56248 8.76199C2.72944 8.81832 3.0105 8.93707 3.18707 9.0259C3.36676 9.11629 3.56839 9.18894 3.64512 9.19094C3.73641 9.19336 3.93872 9.12027 4.25054 8.9723C4.50813 8.85008 4.79794 8.73227 4.89458 8.71051C5.29203 8.62102 5.81597 8.69793 6.31487 8.91894C6.44103 8.97484 6.55087 9.02059 6.55891 9.02059C6.56699 9.02059 6.57359 8.0298 6.57359 6.81891V4.61719L6.37964 4.65246C6.13599 4.69676 0.877923 4.67719 0.784914 4.63164C0.720253 4.59996 0.716583 4.71676 0.716583 6.80938Z" fill="#191217"/>
</svg>
